<svg xmlns="http://www.w3.org/2000/svg" width="9" height="18"><path fill="#b8a9a4" d="M-.002 5.948h1.929v-1.81c0-.797.021-2.028.621-2.79.632-.807 1.5-1.355 2.993-1.355C7.974-.007 9 .327 9 .327l-.482 2.759s-.804-.224-1.554-.224-1.422.258-1.422.983v2.103h3.076l-.215 2.693h-2.86v9.36H1.926V8.64H-.002z"/><path fill="#6b6b6b" d="M-.002 5.948h1.929v-1.81c0-.797.021-2.028.621-2.79.632-.807 1.5-1.355 2.993-1.355C7.974-.007 9 .327 9 .327l-.482 2.759s-.804-.224-1.554-.224-1.422.258-1.422.983v2.103h3.076l-.215 2.693h-2.86v9.36H1.926V8.64H-.002z"/></svg>