<svg xmlns="http://www.w3.org/2000/svg" width="20" height="17"><path fill="#b8a9a4" d="M19.916 2.17a8.326 8.326 0 01-2.396.658A4.195 4.195 0 0019.354.513a8.336 8.336 0 01-2.649 1.016A4.161 4.161 0 0013.66.207a4.178 4.178 0 00-4.172 4.185c0 .328.037.647.108.953A11.831 11.831 0 01.998.973a4.173 4.173 0 00-.565 2.104c0 1.452.736 2.733 1.856 3.483a4.15 4.15 0 01-1.89-.524v.053a4.184 4.184 0 003.346 4.103 4.177 4.177 0 01-1.884.072 4.178 4.178 0 003.897 2.906 8.353 8.353 0 01-6.176 1.732 11.78 11.78 0 006.395 1.88c7.673 0 11.87-6.376 11.87-11.905 0-.182-.005-.362-.013-.541a8.492 8.492 0 002.082-2.167z"/><path fill="#6b6b6b" d="M19.916 2.17a8.326 8.326 0 01-2.396.658A4.195 4.195 0 0019.354.513a8.336 8.336 0 01-2.649 1.016A4.161 4.161 0 0013.66.207a4.178 4.178 0 00-4.172 4.185c0 .328.037.647.108.953A11.831 11.831 0 01.998.973a4.173 4.173 0 00-.565 2.104c0 1.452.736 2.733 1.856 3.483a4.15 4.15 0 01-1.89-.524v.053a4.184 4.184 0 003.346 4.103 4.177 4.177 0 01-1.884.072 4.178 4.178 0 003.897 2.906 8.353 8.353 0 01-6.176 1.732 11.78 11.78 0 006.395 1.88c7.673 0 11.87-6.376 11.87-11.905 0-.182-.005-.362-.013-.541a8.492 8.492 0 002.082-2.167z"/></svg>